<svg width="14" height="18" viewBox="0 0 14 18" fill="none" xmlns="http://www.w3.org/2000/svg">
<path d="M0.999969 17.9989C0.755036 17.9989 0.518633 17.9089 0.335598 17.7462C0.152563 17.5834 0.0356264 17.3592 0.00696945 17.1159L-3.05176e-05 16.9989L-3.05176e-05 0.998901C0.00025177 0.744022 0.0978479 0.498869 0.272818 0.313534C0.447787 0.128199 0.686923 0.0166664 0.941364 0.00172997C1.19581 -0.0132065 1.44635 0.0695763 1.6418 0.233166C1.83725 0.396755 1.96287 0.628805 1.99297 0.881901L1.99997 0.998901L1.99997 16.9989C1.99997 17.2641 1.89461 17.5185 1.70708 17.706C1.51954 17.8935 1.26519 17.9989 0.999969 17.9989ZM13.707 17.7059C13.5348 17.8781 13.3057 17.9815 13.0627 17.9968C12.8196 18.0121 12.5794 17.9382 12.387 17.7889L12.293 17.7059L4.29297 9.7059C4.12079 9.53371 4.01736 9.30461 4.00208 9.06158C3.9868 8.81856 4.06072 8.57831 4.20997 8.3859L4.29297 8.2919L12.293 0.291901C12.4729 0.112553 12.7144 0.00842857 12.9684 0.000673294C13.2223 -0.00708199 13.4697 0.0821171 13.6602 0.250151C13.8508 0.418184 13.9703 0.652454 13.9944 0.905376C14.0185 1.1583 13.9454 1.41091 13.79 1.6119L13.707 1.7059L6.41397 8.9989L13.707 16.2919C13.8944 16.4794 13.9998 16.7337 13.9998 16.9989C13.9998 17.2641 13.8944 17.5184 13.707 17.7059Z" fill="black"/>
</svg>
