<svg width="12" height="20" viewBox="0 0 12 20" fill="none" xmlns="http://www.w3.org/2000/svg">
<path d="M11.0457 0.43918C11.3269 0.720471 11.4849 1.10193 11.4849 1.49968C11.4849 1.89743 11.3269 2.27889 11.0457 2.56018L3.62068 9.98518L11.0457 17.4102C11.3189 17.6931 11.4701 18.072 11.4667 18.4653C11.4633 18.8586 11.3055 19.2348 11.0274 19.5129C10.7493 19.791 10.3731 19.9488 9.97978 19.9522C9.58649 19.9556 9.20758 19.8044 8.92468 19.5312L0.43918 11.0457C0.157973 10.7644 0 10.3829 0 9.98518C0 9.58743 0.157973 9.20597 0.43918 8.92468L8.92468 0.43918C9.20597 0.157973 9.58743 0 9.98518 0C10.3829 0 10.7644 0.157973 11.0457 0.43918Z" fill="black"/>
</svg>
