<svg width="12" height="20" viewBox="0 0 12 20" fill="none" xmlns="http://www.w3.org/2000/svg">
<path d="M0.439184 19.5131C0.157977 19.2318 3.8147e-06 18.8503 3.8147e-06 18.4526C3.8147e-06 18.0548 0.157977 17.6734 0.439184 17.3921L7.86418 9.96709L0.439184 2.54209C0.165947 2.25919 0.0147552 1.88028 0.0181732 1.48699C0.0215902 1.09369 0.179344 0.717474 0.457456 0.439362C0.735568 0.161249 1.11179 0.00349808 1.50508 8.01086e-05C1.89838 -0.00333786 2.27728 0.147854 2.56018 0.421091L11.0457 8.90659C11.3269 9.18788 11.4849 9.56934 11.4849 9.96709C11.4849 10.3648 11.3269 10.7463 11.0457 11.0276L2.56018 19.5131C2.27889 19.7943 1.89743 19.9523 1.49968 19.9523C1.10194 19.9523 0.720475 19.7943 0.439184 19.5131Z" fill="black"/>
</svg>
